<svg width="48" height="48" viewBox="0 0 48 48" fill="none" xmlns="http://www.w3.org/2000/svg">
<path d="M13.4257 11.4239C12.2402 8.16672 13.9196 4.56518 17.1768 3.37966C19.9257 2.37915 22.9199 3.41916 24.5 5.72599C26.0802 3.41916 29.0744 2.37915 31.8232 3.37966C35.0804 4.56518 36.7599 8.16672 35.5743 11.4239L35.0011 12.9989L36.5761 12.4257C39.8333 11.2402 43.4349 12.9196 44.6204 16.1768C45.6209 18.9257 44.5809 21.9198 42.2741 23.5C44.5809 25.0802 45.6209 28.0743 44.6204 30.8232C43.4349 34.0804 39.8333 35.7598 36.5761 34.5743L35.0011 34.001L35.5744 35.5761C36.7599 38.8333 35.0804 42.4348 31.8232 43.6203C29.0744 44.6208 26.0802 43.5808 24.5 41.274C22.9199 43.5808 19.9257 44.6208 17.1768 43.6203C13.9196 42.4348 12.2402 38.8333 13.4257 35.5761L13.999 34.001L12.424 34.5743C9.16678 35.7598 5.56524 34.0804 4.37972 30.8232C3.37921 28.0743 4.41922 25.0802 6.72606 23.5C4.41922 21.9198 3.37921 18.9257 4.37972 16.1768C5.56524 12.9196 9.16678 11.2402 12.424 12.4257L13.999 12.9989L13.4257 11.4239Z" fill="white"/>
</svg>
