<svg width="48" height="48" viewBox="0 0 48 48" fill="none" xmlns="http://www.w3.org/2000/svg">
<path d="M8.34921 35.3016C10.7512 35.3016 12.6984 37.2488 12.6984 39.6508C12.6984 42.0528 14.6456 44 17.0476 44H30.9524C33.3544 44 35.3016 42.0528 35.3016 39.6508C35.3016 37.2488 37.2488 35.3016 39.6508 35.3016C42.0528 35.3016 44 33.3544 44 30.9524V17.0476C44 14.6456 42.0528 12.6984 39.6508 12.6984C37.2488 12.6984 35.3016 10.7512 35.3016 8.34921C35.3016 5.94721 33.3544 4 30.9524 4H17.0476C14.6456 4 12.6984 5.94721 12.6984 8.34921C12.6984 10.7512 10.7512 12.6984 8.3492 12.6984C5.94721 12.6984 4 14.6456 4 17.0476V30.9524C4 33.3544 5.94721 35.3016 8.34921 35.3016Z" fill="white"/>
</svg>
