<svg width="48" height="48" viewBox="0 0 48 48" fill="none" xmlns="http://www.w3.org/2000/svg">
<path d="M44 14.0141C44 14.1209 43.9948 14.2272 43.9845 14.333C44 14.7083 44 15.1609 44 15.7307V32.3965C44 32.9213 44 33.3468 43.9879 33.704C43.9959 33.7975 44 33.8915 44 33.9859C44 38.412 35.0457 42 24 42C12.9543 42 4 38.412 4 33.9859C4 33.8915 4.00409 33.7975 4.01215 33.704C4 33.3468 4 32.9213 4 32.3965V15.7307C4 15.0809 4.0099 14.4594 4.00989 13.7597C4.34519 9.45137 13.1667 6 24 6C35.0457 6 44 9.58805 44 14.0141Z" fill="white"/>
</svg>
