<svg width="48" height="48" viewBox="0 0 48 48" fill="none" xmlns="http://www.w3.org/2000/svg">
<path fill-rule="evenodd" clip-rule="evenodd" d="M24 1C19.6063 1 16.2409 4.88459 16.8919 9.20463L17.4117 12.6548L14.6664 10.4821C11.2288 7.7616 6.16237 8.71698 3.96555 12.5C1.76869 16.283 3.46972 21.123 7.55821 22.7226L10.8235 24L7.55821 25.2775C3.46969 26.877 1.76869 31.717 3.96551 35.5C6.16237 39.283 11.2288 40.2384 14.6664 37.5179L17.4117 35.3452L16.8919 38.7954C16.2409 43.1154 19.6063 47 24 47C28.3937 47 31.7591 43.1154 31.1082 38.7954L30.5883 35.3452L33.3337 37.5179C36.7712 40.2384 41.8376 39.283 44.0345 35.5C46.2313 31.717 44.5303 26.877 40.4418 25.2775L37.1765 24L40.4418 22.7226C44.5303 21.123 46.2313 16.283 44.0345 12.5C41.8376 8.71698 36.7712 7.7616 33.3336 10.4821L30.5883 12.6548L31.1082 9.20463C31.7591 4.88459 28.3937 1 24 1Z" fill="white"/>
</svg>
