<svg width="48" height="48" viewBox="0 0 48 48" fill="none" xmlns="http://www.w3.org/2000/svg">
<path d="M21.7148 4.59103C22.4998 2.46966 25.5002 2.46966 26.2852 4.59103L28.9661 11.8359C30.2 15.1707 32.8293 17.8 36.1641 19.0339L43.409 21.7148C45.5303 22.4998 45.5303 25.5002 43.409 26.2852L36.1641 28.9661C32.8293 30.2 30.2 32.8293 28.9661 36.1641L26.2852 43.409C25.5002 45.5303 22.4998 45.5303 21.7148 43.409L19.0339 36.1641C17.8 32.8293 15.1707 30.2 11.8359 28.9661L4.59103 26.2852C2.46966 25.5002 2.46966 22.4998 4.59103 21.7148L11.8359 19.0339C15.1707 17.8 17.8 15.1707 19.0339 11.8359L21.7148 4.59103Z" fill="white"/>
</svg>
