<svg width="48" height="48" viewBox="0 0 48 48" fill="none" xmlns="http://www.w3.org/2000/svg">
<path d="M20.3422 4.65964C21.884 2.44678 25.116 2.44679 26.6578 4.65964L31.4132 11.4845C31.9041 12.1891 32.6096 12.7098 33.4208 12.9665L41.2791 15.4523C43.8271 16.2583 44.8258 19.3811 43.2308 21.5548L38.3114 28.2586C37.8036 28.9507 37.5341 29.7933 37.5446 30.6564L37.6459 39.0177C37.6788 41.7287 35.0641 43.6587 32.5365 42.7892L24.7408 40.1075C23.936 39.8307 23.064 39.8307 22.2592 40.1075L14.4635 42.7892C11.9359 43.6587 9.32122 41.7286 9.35408 39.0177L9.45542 30.6564C9.46588 29.7933 9.19639 28.9507 8.68857 28.2586L3.76923 21.5548C2.17422 19.3811 3.17294 16.2583 5.72087 15.4523L13.5792 12.9665C14.3904 12.7098 15.0959 12.1891 15.5868 11.4845L20.3422 4.65964Z" fill="white"/>
</svg>
